<svg width="25" height="25" viewBox="0 0 25 25" fill="none" xmlns="http://www.w3.org/2000/svg">
<g clip-path="url(#clip0_12_148)">
<path fill-rule="evenodd" clip-rule="evenodd" d="M15.8007 4.082C16.6387 3.068 17.2027 1.655 17.0487 0.25C15.8407 0.299 14.3797 1.055 13.5137 2.069C12.7367 2.967 12.0567 4.404 12.2407 5.781C13.5867 5.886 14.9627 5.097 15.8007 4.082ZM18.8207 13C18.8547 16.632 22.0067 17.841 22.0417 17.857C22.0157 17.942 21.5387 19.579 20.3807 21.27C19.3807 22.732 18.3427 24.189 16.7067 24.219C15.0997 24.248 14.5837 23.266 12.7457 23.266C10.9097 23.266 10.3357 24.189 8.8137 24.248C7.2357 24.308 6.0337 22.667 5.0247 21.211C2.9637 18.231 1.3887 12.791 3.5037 9.119C4.5547 7.295 6.4317 6.14 8.4697 6.111C10.0197 6.081 11.4827 7.154 12.4307 7.154C13.3777 7.154 15.1557 5.864 17.0247 6.053C17.8077 6.086 20.0037 6.369 21.4147 8.434C21.3007 8.504 18.7937 9.964 18.8207 13Z" fill="white"/>
</g>
<defs>
<clipPath id="clip0_12_148">
<rect width="24" height="24" fill="white" transform="translate(0.5 0.25)"/>
</clipPath>
</defs>
</svg>
