<svg width="32" height="32" viewBox="0 0 32 32" fill="none" xmlns="http://www.w3.org/2000/svg">
<path d="M15.6093 7.05734C15.8593 7.30738 15.9997 7.64646 15.9997 8.00001C15.9997 8.35356 15.8593 8.69264 15.6093 8.94268L9.88533 14.6667H25.3333C25.687 14.6667 26.0261 14.8072 26.2761 15.0572C26.5262 15.3073 26.6667 15.6464 26.6667 16C26.6667 16.3536 26.5262 16.6928 26.2761 16.9428C26.0261 17.1929 25.687 17.3333 25.3333 17.3333H9.88533L15.6093 23.0573C15.8522 23.3088 15.9866 23.6456 15.9836 23.9952C15.9805 24.3448 15.8403 24.6792 15.5931 24.9264C15.3459 25.1736 15.0115 25.3139 14.6619 25.3169C14.3123 25.3199 13.9755 25.1856 13.724 24.9427L5.724 16.9427C5.47404 16.6926 5.33362 16.3536 5.33362 16C5.33362 15.6465 5.47404 15.3074 5.724 15.0573L13.724 7.05734C13.974 6.80738 14.3131 6.66696 14.6667 6.66696C15.0202 6.66696 15.3593 6.80738 15.6093 7.05734Z" fill="#0D0D0D"/>
</svg>
