<svg width="25" height="25" viewBox="0 0 25 25" fill="none" xmlns="http://www.w3.org/2000/svg">
<path fill-rule="evenodd" clip-rule="evenodd" d="M23.5002 0.25H1.5005C0.94775 0.25 0.5 0.69775 0.5 1.24975V23.2502C0.5 23.8022 0.94775 24.25 1.5005 24.25H13.25V15.25H10.25V11.5H13.25V8.5C13.25 5.40025 15.2128 3.87475 17.978 3.87475C19.3025 3.87475 20.441 3.97375 20.7725 4.01725V7.25725L18.8547 7.258C17.351 7.258 17 7.97275 17 9.02125V11.5H20.75L20 15.25H17L17.06 24.25H23.5002C24.0522 24.25 24.5 23.8022 24.5 23.2502V1.24975C24.5 0.69775 24.0522 0.25 23.5002 0.25Z" fill="#3B5998"/>
</svg>
