<svg width="256" height="256" viewBox="0 0 256 256" fill="none" xmlns="http://www.w3.org/2000/svg">
<path d="M103.43 108.165V32.7934C103.43 17.719 118.306 8 125.248 8H179.23V20.8926C179.23 24.0661 184.752 29.8182 187.727 29.8182H221.446V47.6694C221.446 61.5537 208.554 73.4545 193.678 72.4628L199.628 84.3636L204.587 98.2479L206.57 121.058L203.595 134.942L197.645 146.843L190.702 157.752L178.802 169.653V210.314C178.802 219.24 199.628 236.099 199.628 236.099L200.62 239.074V248H35V176.595C35 155.769 57.8099 108.165 103.43 108.165Z" fill="black"/>
<path d="M80.6199 80.3967H88.5538C83.5951 77.4215 81.6116 69.4876 86.5703 63.5372L102.438 80.3967C96.8843 97.0578 81.6116 89.3223 80.6199 80.3967Z" fill="black"/>
<path d="M186.735 79.405H112.355C112.355 66.5124 112.355 38.7834 112.355 30.8099C112.355 22.876 123.264 18.9091 126.24 18.9091C126.24 38.7438 144.091 49.6529 155 48.6612V22.876C155 19.7025 156.983 17.9174 159.959 17.9174H169.876C169.876 32.7934 180.785 38.7438 185.744 38.7438H210.537V49.6529C210.537 55.6033 201.612 62.5455 197.645 62.5455H170.868L186.735 79.405Z" fill="white"/>
<path d="M113.347 91.3058L177.81 154.777C166.901 172.628 134.174 188.496 136.157 209.322C137.479 223.207 142.107 226.182 152.025 237.091H134.174C126.24 230.149 111.364 215.273 113.347 203.372V181.554C113.347 179.57 107.992 172.628 102.438 172.628C105.341 192.952 82.7436 221.777 77.0437 223.155C91.8404 221.242 109.467 222.345 119.297 237.091H45.9091V175.603C45.9091 150.81 78.6363 113.124 113.347 119.074V91.3058Z" fill="white"/>
<path d="M167.893 210.314L168.884 180.562C161.281 186.512 146.074 200.595 146.074 209.322C146.074 218.05 161.281 232.132 168.884 238.083H185.744C177.81 227.174 167.893 220.231 167.893 210.314Z" fill="white"/>
</svg>
