<svg width="24" height="24" viewBox="0 0 24 24" fill="none" xmlns="http://www.w3.org/2000/svg">
<path d="M12.207 2.293C12.3945 2.48053 12.4998 2.73484 12.4998 3C12.4998 3.26516 12.3945 3.51947 12.207 3.707L10.914 5H12.5C17.152 5 21 8.848 21 13.5C21 18.152 17.152 22 12.5 22C7.848 22 4 18.152 4 13.5C4 13.2348 4.10536 12.9804 4.29289 12.7929C4.48043 12.6054 4.73478 12.5 5 12.5C5.26522 12.5 5.51957 12.6054 5.70711 12.7929C5.89464 12.9804 6 13.2348 6 13.5C6 17.048 8.952 20 12.5 20C16.048 20 19 17.048 19 13.5C19 9.952 16.048 7 12.5 7H10.914L12.207 8.293C12.3892 8.4816 12.49 8.7342 12.4877 8.9964C12.4854 9.2586 12.3802 9.50941 12.1948 9.69482C12.0094 9.88023 11.7586 9.9854 11.4964 9.98767C11.2342 9.98995 10.9816 9.88916 10.793 9.707L7.793 6.707C7.60553 6.51947 7.50021 6.26516 7.50021 6C7.50021 5.73484 7.60553 5.48053 7.793 5.293L10.793 2.293C10.9805 2.10553 11.2348 2.00021 11.5 2.00021C11.7652 2.00021 12.0195 2.10553 12.207 2.293Z" fill="#F4C288"/>
</svg>
