<svg width="32" height="32" viewBox="0 0 32 32" fill="none" xmlns="http://www.w3.org/2000/svg">
<path d="M17.8907 2.788C18.1224 2.89462 18.3187 3.06549 18.4562 3.28031C18.5938 3.49514 18.6668 3.74491 18.6667 4V28C18.6667 28.2549 18.5936 28.5044 18.4562 28.7191C18.3188 28.9337 18.1227 29.1045 17.8912 29.2111C17.6596 29.3178 17.4024 29.3558 17.15 29.3207C16.8975 29.2857 16.6604 29.179 16.4667 29.0133L7.50667 21.3333H4.00001C3.64638 21.3333 3.30724 21.1929 3.0572 20.9428C2.80715 20.6928 2.66667 20.3536 2.66667 20V12C2.66667 11.6464 2.80715 11.3072 3.0572 11.0572C3.30724 10.8071 3.64638 10.6667 4.00001 10.6667H7.50667L16.4667 2.98666C16.6602 2.82094 16.8972 2.71415 17.1496 2.67894C17.402 2.64373 17.6591 2.68158 17.8907 2.788ZM16 6.9L8.86667 13.0133C8.62515 13.2199 8.3178 13.3334 8 13.3333H5.33334V18.6667H8C8.3178 18.6666 8.62515 18.7801 8.86667 18.9867L16 25.1027V6.89866V6.9ZM23.0573 7.05866C23.3074 6.8087 23.6465 6.66828 24 6.66828C24.3536 6.66828 24.6926 6.8087 24.9427 7.05866L24.9453 7.06L24.9467 7.06266L24.952 7.068L24.9653 7.08133C25.0179 7.13515 25.0686 7.19074 25.1173 7.248C25.2107 7.35466 25.3373 7.50666 25.4827 7.70133C25.776 8.09066 26.1533 8.65866 26.5253 9.40533C27.2747 10.9 28 13.1027 28 16C28 18.8973 27.2747 21.1 26.5253 22.596C26.152 23.3427 25.776 23.9107 25.484 24.3C25.322 24.5155 25.1488 24.7224 24.9653 24.92L24.952 24.9333L24.9467 24.9387L24.9453 24.9413L24.944 24.9427C24.6947 25.1937 24.3559 25.3355 24.0021 25.3367C23.6482 25.338 23.3084 25.1986 23.0573 24.9493C22.8063 24.7 22.6645 24.3612 22.6633 24.0074C22.662 23.6536 22.8014 23.3137 23.0507 23.0627L23.0573 23.0573L23.1107 22.9973C23.164 22.9373 23.2467 22.8373 23.3507 22.7C23.6523 22.2924 23.9169 21.8587 24.1413 21.404C24.7253 20.2333 25.3333 18.436 25.3333 16C25.3333 13.564 24.7253 11.7667 24.1413 10.596C23.9164 10.1413 23.6514 9.70757 23.3493 9.3C23.2569 9.17658 23.159 9.05735 23.056 8.94266L23.0507 8.936C22.8032 8.6853 22.665 8.34687 22.6663 7.99462C22.6675 7.64237 22.8081 7.30493 23.0573 7.056V7.05866ZM20.3907 11.0587C20.6407 10.8087 20.9798 10.6683 21.3333 10.6683C21.6869 10.6683 22.026 10.8087 22.276 11.0587L22.2787 11.06L22.28 11.0627L22.284 11.0667L22.2947 11.0773L22.3213 11.104L22.3947 11.1853C22.7074 11.5591 22.9754 11.9681 23.1933 12.404C23.6067 13.2347 24 14.4373 24 16.0013C24 17.5653 23.608 18.768 23.192 19.5973C22.9867 20.0107 22.776 20.328 22.608 20.552C22.5183 20.6722 22.4226 20.7879 22.3213 20.8987L22.2947 20.9253L22.284 20.936L22.28 20.94L22.2773 20.9427C22.0279 21.1934 21.689 21.3347 21.3353 21.3356C20.9816 21.3365 20.6421 21.1968 20.3913 20.9473C20.1406 20.6979 19.9993 20.359 19.9984 20.0053C19.9975 19.6516 20.1372 19.312 20.3867 19.0613C20.5501 18.8586 20.6909 18.6386 20.8067 18.4053C21.06 17.9013 21.3333 17.104 21.3333 16.0013C21.3333 14.8987 21.0587 14.1013 20.808 13.5973C20.6918 13.364 20.5505 13.1441 20.3867 12.9413C20.1379 12.6911 19.9985 12.3523 19.999 11.9994C19.9995 11.6465 20.1398 11.3082 20.3893 11.0587H20.3907Z" fill="#0D0D0D"/>
</svg>
