<svg width="48" height="48" viewBox="0 0 48 48" fill="none" xmlns="http://www.w3.org/2000/svg">
<path d="M41 10C40.2043 10 39.4413 10.3161 38.8787 10.8787C38.316 11.4413 38 12.2044 38 13V22H36V9C36 8.20435 35.6839 7.44129 35.1213 6.87868C34.5587 6.31607 33.7956 6 33 6C32.2043 6 31.4413 6.31607 30.8786 6.87868C30.316 7.44129 30 8.20435 30 9V22H28V7C28 6.20435 27.6839 5.44129 27.1213 4.87868C26.5587 4.31607 25.7956 4 25 4C24.2043 4 23.4413 4.31607 22.8786 4.87868C22.316 5.44129 22 6.20435 22 7V22H20V11C20 10.2044 19.6839 9.44129 19.1213 8.87868C18.5587 8.31607 17.7956 8 17 8C16.2043 8 15.4413 8.31607 14.8786 8.87868C14.316 9.44129 14 10.2044 14 11V32.62L9.55997 25.42C9.14093 24.741 8.46934 24.2564 7.69293 24.0726C6.91653 23.8888 6.09892 24.021 5.41997 24.44C4.74102 24.859 4.25633 25.5306 4.07255 26.307C3.88876 27.0834 4.02093 27.901 4.43997 28.58L11.06 39.26C11.9559 40.7086 13.2069 41.9043 14.6944 42.7338C16.182 43.5633 17.8568 43.9992 19.56 44H34C36.6521 44 39.1957 42.9464 41.071 41.0711C42.9464 39.1957 44 36.6522 44 34V13C44 12.2044 43.6839 11.4413 43.1213 10.8787C42.5587 10.3161 41.7956 10 41 10Z" fill="black"/>
</svg>
