<svg width="41" height="40" viewBox="0 0 41 40" fill="none" xmlns="http://www.w3.org/2000/svg">
<path d="M14.3217 7.15502C14.6342 6.84244 15.058 6.66678 15.5 6.66669H25.5C25.942 6.66678 26.3658 6.84244 26.6783 7.15502L29.5233 10H33.8333C34.7174 10 35.5652 10.3512 36.1904 10.9763C36.8155 11.6015 37.1667 12.4493 37.1667 13.3334V30C37.1667 30.8841 36.8155 31.7319 36.1904 32.357C35.5652 32.9822 34.7174 33.3334 33.8333 33.3334H7.16667C6.28261 33.3334 5.43477 32.9822 4.80965 32.357C4.18453 31.7319 3.83334 30.8841 3.83334 30V13.3334C3.83334 12.4493 4.18453 11.6015 4.80965 10.9763C5.43477 10.3512 6.28261 10 7.16667 10H11.4767L14.3217 7.15502ZM16.19 10L13.345 12.845C13.0325 13.1576 12.6087 13.3333 12.1667 13.3334H7.16667V30H33.8333V13.3334H28.8333C28.3913 13.3333 27.9675 13.1576 27.655 12.845L24.81 10H16.19ZM20.5 17.5C19.6159 17.5 18.7681 17.8512 18.143 18.4763C17.5179 19.1015 17.1667 19.9493 17.1667 20.8334C17.1667 21.7174 17.5179 22.5653 18.143 23.1904C18.7681 23.8155 19.6159 24.1667 20.5 24.1667C21.3841 24.1667 22.2319 23.8155 22.857 23.1904C23.4821 22.5653 23.8333 21.7174 23.8333 20.8334C23.8333 19.9493 23.4821 19.1015 22.857 18.4763C22.2319 17.8512 21.3841 17.5 20.5 17.5ZM13.8333 20.8334C13.8333 19.0652 14.5357 17.3696 15.786 16.1193C17.0362 14.8691 18.7319 14.1667 20.5 14.1667C22.2681 14.1667 23.9638 14.8691 25.214 16.1193C26.4643 17.3696 27.1667 19.0652 27.1667 20.8334C27.1667 22.6015 26.4643 24.2972 25.214 25.5474C23.9638 26.7976 22.2681 27.5 20.5 27.5C18.7319 27.5 17.0362 26.7976 15.786 25.5474C14.5357 24.2972 13.8333 22.6015 13.8333 20.8334Z" fill="#0D0D0D"/>
</svg>
