<svg width="25" height="25" viewBox="0 0 25 25" fill="none" xmlns="http://www.w3.org/2000/svg">
<g clip-path="url(#clip0_12_137)">
<path d="M5.7662 10.0145C6.69879 7.18863 9.35445 5.15909 12.5 5.15909C14.1909 5.15909 15.7182 5.75909 16.9182 6.74091L20.4091 3.25C18.2818 1.39545 15.5545 0.25 12.5 0.25C7.77007 0.25 3.69775 2.9483 1.73999 6.90002L5.7662 10.0145Z" fill="#EA4335"/>
<path d="M16.5407 18.2626C15.4509 18.9663 14.0661 19.3409 12.5 19.3409C9.36648 19.3409 6.71911 17.3269 5.77698 14.5179L1.73746 17.585C3.69279 21.5436 7.765 24.25 12.5 24.25C15.4328 24.25 18.2353 23.2074 20.3342 21.2496L16.5407 18.2626Z" fill="#34A853"/>
<path d="M20.3342 21.2496C22.5292 19.2021 23.9545 16.1537 23.9545 12.25C23.9545 11.5409 23.8455 10.7773 23.6818 10.0682H12.5V14.7045H18.9364C18.6188 16.2636 17.7663 17.4712 16.5407 18.2626L20.3342 21.2496Z" fill="#4A90E2"/>
<path d="M5.77698 14.5179C5.53833 13.8063 5.40909 13.0438 5.40909 12.25C5.40909 11.4683 5.53444 10.7168 5.7662 10.0145L1.73999 6.90002C0.936587 8.51043 0.5 10.3254 0.5 12.25C0.5 14.1695 0.944781 15.9802 1.73746 17.585L5.77698 14.5179Z" fill="#FBBC05"/>
</g>
<defs>
<clipPath id="clip0_12_137">
<rect width="24" height="24" fill="white" transform="translate(0.5 0.25)"/>
</clipPath>
</defs>
</svg>
