<svg width="40" height="40" viewBox="0 0 40 40" fill="none" xmlns="http://www.w3.org/2000/svg">
<path d="M18.8933 3.75498C19.1983 3.48413 19.5921 3.33453 20 3.33453C20.4079 3.33453 20.8017 3.48413 21.1067 3.75498L36.1067 17.0883C36.4202 17.3862 36.6057 17.7943 36.624 18.2263C36.6422 18.6584 36.4918 19.0807 36.2045 19.4039C35.9171 19.7272 35.5154 19.9261 35.0842 19.9586C34.6529 19.9912 34.2259 19.8548 33.8933 19.5783L33.3333 19.0833V31.6666C33.3333 32.5507 32.9821 33.3985 32.357 34.0237C31.7319 34.6488 30.8841 35 30 35H10C9.11595 35 8.2681 34.6488 7.64298 34.0237C7.01786 33.3985 6.66667 32.5507 6.66667 31.6666V19.0833L6.10667 19.5783C5.7741 19.8548 5.34709 19.9912 4.91583 19.9586C4.48458 19.9261 4.08286 19.7272 3.79554 19.4039C3.50822 19.0807 3.35779 18.6584 3.37604 18.2263C3.39429 17.7943 3.57978 17.3862 3.89333 17.0883L18.8933 3.75498ZM10 16.1166V31.6666H15V23.3333C15 22.8913 15.1756 22.4674 15.4882 22.1548C15.8007 21.8422 16.2246 21.6666 16.6667 21.6666H23.3333C23.7754 21.6666 24.1993 21.8422 24.5118 22.1548C24.8244 22.4674 25 22.8913 25 23.3333V31.6666H30V16.1183L20 7.22998L10 16.1166ZM21.6667 31.6666V25H18.3333V31.6666H21.6667Z" fill="#0D0D0D"/>
</svg>
