<svg width="145" height="50" viewBox="0 0 145 50" fill="none" xmlns="http://www.w3.org/2000/svg">
<path d="M12.52 39.73C10.28 39.73 8.13333 39.4367 6.08 38.85C4.02667 38.2367 2.37333 37.45 1.12 36.49L3.32 31.61C4.52 32.4633 5.93333 33.17 7.56 33.73C9.21333 34.2633 10.88 34.53 12.56 34.53C13.84 34.53 14.8667 34.41 15.64 34.17C16.44 33.9033 17.0267 33.5433 17.4 33.09C17.7733 32.6367 17.96 32.1167 17.96 31.53C17.96 30.7833 17.6667 30.1967 17.08 29.77C16.4933 29.3167 15.72 28.9567 14.76 28.69C13.8 28.3967 12.7333 28.13 11.56 27.89C10.4133 27.6233 9.25333 27.3033 8.08 26.93C6.93333 26.5567 5.88 26.0767 4.92 25.49C3.96 24.9033 3.17333 24.13 2.56 23.17C1.97333 22.21 1.68 20.9833 1.68 19.49C1.68 17.89 2.10667 16.4367 2.96 15.13C3.84 13.7967 5.14667 12.7433 6.88 11.97C8.64 11.17 10.84 10.77 13.48 10.77C15.24 10.77 16.9733 10.9833 18.68 11.41C20.3867 11.81 21.8933 12.4233 23.2 13.25L21.2 18.17C19.8933 17.4233 18.5867 16.8767 17.28 16.53C15.9733 16.1567 14.6933 15.97 13.44 15.97C12.1867 15.97 11.16 16.1167 10.36 16.41C9.56 16.7033 8.98667 17.09 8.64 17.57C8.29333 18.0233 8.12 18.5567 8.12 19.17C8.12 19.89 8.41333 20.4767 9 20.93C9.58667 21.3567 10.36 21.7033 11.32 21.97C12.28 22.2367 13.3333 22.5033 14.48 22.77C15.6533 23.0367 16.8133 23.3433 17.96 23.69C19.1333 24.0367 20.2 24.5033 21.16 25.09C22.12 25.6767 22.8933 26.45 23.48 27.41C24.0933 28.37 24.4 29.5833 24.4 31.05C24.4 32.6233 23.96 34.0633 23.08 35.37C22.2 36.6767 20.88 37.73 19.12 38.53C17.3867 39.33 15.1867 39.73 12.52 39.73ZM42.2278 39.73C40.0678 39.73 38.0545 39.3833 36.1878 38.69C34.3478 37.97 32.7478 36.9567 31.3878 35.65C30.0278 34.3433 28.9611 32.81 28.1878 31.05C27.4411 29.29 27.0678 27.3567 27.0678 25.25C27.0678 23.1433 27.4411 21.21 28.1878 19.45C28.9611 17.69 30.0278 16.1567 31.3878 14.85C32.7745 13.5433 34.3878 12.5433 36.2278 11.85C38.0678 11.13 40.0811 10.77 42.2678 10.77C44.6945 10.77 46.8811 11.1967 48.8278 12.05C50.8011 12.8767 52.4545 14.1033 53.7878 15.73L49.6278 19.57C48.6678 18.4767 47.6011 17.6633 46.4278 17.13C45.2545 16.57 43.9745 16.29 42.5878 16.29C41.2811 16.29 40.0811 16.5033 38.9878 16.93C37.8945 17.3567 36.9478 17.97 36.1478 18.77C35.3478 19.57 34.7211 20.5167 34.2678 21.61C33.8411 22.7033 33.6278 23.9167 33.6278 25.25C33.6278 26.5833 33.8411 27.7967 34.2678 28.89C34.7211 29.9833 35.3478 30.93 36.1478 31.73C36.9478 32.53 37.8945 33.1433 38.9878 33.57C40.0811 33.9967 41.2811 34.21 42.5878 34.21C43.9745 34.21 45.2545 33.9433 46.4278 33.41C47.6011 32.85 48.6678 32.01 49.6278 30.89L53.7878 34.73C52.4545 36.3567 50.8011 37.5967 48.8278 38.45C46.8811 39.3033 44.6811 39.73 42.2278 39.73ZM104.588 39.73C100.615 39.73 97.5081 38.6233 95.2681 36.41C93.0281 34.1967 91.9081 31.0367 91.9081 26.93V11.25H98.3881V26.69C98.3881 29.3567 98.9348 31.2767 100.028 32.45C101.121 33.6233 102.655 34.21 104.628 34.21C106.601 34.21 108.135 33.6233 109.228 32.45C110.321 31.2767 110.868 29.3567 110.868 26.69V11.25H117.268V26.93C117.268 31.0367 116.148 34.1967 113.908 36.41C111.668 38.6233 108.561 39.73 104.588 39.73ZM129.003 39.25V16.53H120.043V11.25H144.443V16.53H135.483V39.25H129.003Z" fill="black"/>
<circle cx="72" cy="24.25" r="14" fill="black"/>
</svg>
