<svg width="40" height="40" viewBox="0 0 40 40" fill="none" xmlns="http://www.w3.org/2000/svg">
<path d="M20 6.66669C19.558 6.66669 19.134 6.84229 18.8215 7.15485C18.5089 7.46741 18.3333 7.89133 18.3333 8.33336C18.3333 11.1534 14.9233 12.5667 12.9283 10.5717C12.7746 10.4125 12.5907 10.2855 12.3873 10.1982C12.184 10.1108 11.9653 10.0649 11.744 10.0629C11.5227 10.061 11.3032 10.1032 11.0984 10.187C10.8936 10.2708 10.7075 10.3945 10.551 10.551C10.3945 10.7075 10.2708 10.8936 10.187 11.0984C10.1032 11.3033 10.061 11.5227 10.0629 11.744C10.0648 11.9653 10.1108 12.184 10.1982 12.3874C10.2855 12.5907 10.4125 12.7746 10.5717 12.9284C12.5667 14.9234 11.155 18.3334 8.33333 18.3334C7.8913 18.3334 7.46738 18.509 7.15482 18.8215C6.84226 19.1341 6.66666 19.558 6.66666 20C6.66666 20.4421 6.84226 20.866 7.15482 21.1785C7.46738 21.4911 7.8913 21.6667 8.33333 21.6667C11.1533 21.6667 12.5667 25.0767 10.5717 27.0717C10.2681 27.386 10.1001 27.807 10.1039 28.244C10.1077 28.681 10.283 29.099 10.592 29.4081C10.901 29.7171 11.319 29.8924 11.756 29.8962C12.193 29.8999 12.614 29.732 12.9283 29.4284C14.9233 27.4334 18.3333 28.845 18.3333 31.6667C18.3333 32.1087 18.5089 32.5326 18.8215 32.8452C19.134 33.1578 19.558 33.3334 20 33.3334C20.442 33.3334 20.8659 33.1578 21.1785 32.8452C21.4911 32.5326 21.6667 32.1087 21.6667 31.6667C21.6667 28.8467 25.0767 27.4334 27.0717 29.4284C27.2254 29.5875 27.4093 29.7145 27.6127 29.8019C27.816 29.8892 28.0347 29.9352 28.256 29.9371C28.4773 29.939 28.6968 29.8969 28.9016 29.8131C29.1064 29.7293 29.2925 29.6055 29.449 29.449C29.6055 29.2925 29.7292 29.1064 29.813 28.9016C29.8968 28.6968 29.939 28.4773 29.9371 28.256C29.9352 28.0347 29.8892 27.816 29.8018 27.6127C29.7145 27.4093 29.5875 27.2254 29.4283 27.0717C27.4333 25.0767 28.845 21.6667 31.6667 21.6667C32.1087 21.6667 32.5326 21.4911 32.8452 21.1785C33.1577 20.866 33.3333 20.4421 33.3333 20C33.3333 19.558 33.1577 19.1341 32.8452 18.8215C32.5326 18.509 32.1087 18.3334 31.6667 18.3334C28.8467 18.3334 27.4333 14.9234 29.4283 12.9284C29.7319 12.614 29.8999 12.193 29.8961 11.756C29.8923 11.319 29.717 10.901 29.408 10.592C29.099 10.283 28.681 10.1077 28.244 10.1039C27.807 10.1001 27.386 10.2681 27.0717 10.5717C25.0767 12.5667 21.6667 11.155 21.6667 8.33336C21.6667 7.89133 21.4911 7.46741 21.1785 7.15485C20.8659 6.84229 20.442 6.66669 20 6.66669ZM15.0133 7.96169C15.1055 6.70215 15.6709 5.52414 16.5959 4.66432C17.5209 3.80451 18.7371 3.3266 20 3.3266C21.2629 3.3266 22.479 3.80451 23.4041 4.66432C24.3291 5.52414 24.8945 6.70215 24.9867 7.96169C25.943 7.14033 27.1743 6.71054 28.4341 6.75837C29.6938 6.80621 30.889 7.32814 31.7803 8.21966C32.6716 9.11118 33.1933 10.3065 33.2408 11.5662C33.2883 12.826 32.8583 14.0572 32.0367 15.0134C33.2962 15.1053 34.4743 15.6705 35.3343 16.5954C36.1943 17.5203 36.6724 18.7363 36.6726 19.9993C36.6728 21.2622 36.1951 22.4784 35.3354 23.4036C34.4758 24.3287 33.2979 24.8943 32.0383 24.9867C32.8597 25.943 33.2895 27.1744 33.2416 28.4341C33.1938 29.6938 32.6719 30.889 31.7804 31.7803C30.8888 32.6716 29.6935 33.1933 28.4338 33.2408C27.174 33.2884 25.9428 32.8583 24.9867 32.0367C24.8945 33.2962 24.3291 34.4743 23.4041 35.3341C22.479 36.1939 21.2629 36.6718 20 36.6718C18.7371 36.6718 17.5209 36.1939 16.5959 35.3341C15.6709 34.4743 15.1055 33.2962 15.0133 32.0367C14.0572 32.8583 12.826 33.2884 11.5662 33.2408C10.3064 33.1933 9.11115 32.6716 8.21963 31.7803C7.32811 30.889 6.80618 29.6938 6.75834 28.4341C6.71051 27.1744 7.1403 25.943 7.96166 24.9867C6.70212 24.8945 5.52411 24.3291 4.66429 23.4041C3.80448 22.4791 3.32657 21.2629 3.32657 20C3.32657 18.7371 3.80448 17.521 4.66429 16.596C5.52411 15.6709 6.70212 15.1055 7.96166 15.0134C7.1378 14.0574 6.70591 12.8252 6.75265 11.5641C6.79939 10.3029 7.32131 9.10609 8.21369 8.21372C9.10606 7.32134 10.3029 6.79943 11.564 6.75268C12.8252 6.70594 14.0573 7.13783 15.0133 7.96169Z" fill="#0D0D0D"/>
<path d="M20 16.6667C19.1159 16.6667 18.2681 17.0178 17.643 17.643C17.0179 18.2681 16.6667 19.1159 16.6667 20C16.6667 20.884 17.0179 21.7319 17.643 22.357C18.2681 22.9821 19.1159 23.3333 20 23.3333C20.8841 23.3333 21.7319 22.9821 22.357 22.357C22.9821 21.7319 23.3333 20.884 23.3333 20C23.3333 19.1159 22.9821 18.2681 22.357 17.643C21.7319 17.0178 20.8841 16.6667 20 16.6667ZM15.2867 15.2867C15.9016 14.6499 16.6373 14.142 17.4506 13.7926C18.264 13.4433 19.1388 13.2593 20.024 13.2517C20.9092 13.244 21.787 13.4126 22.6064 13.7478C23.4257 14.0831 24.17 14.5781 24.796 15.204C25.4219 15.83 25.9169 16.5743 26.2521 17.3936C26.5873 18.2129 26.756 19.0908 26.7483 19.976C26.7406 20.8612 26.5567 21.736 26.2073 22.5494C25.8579 23.3627 25.3501 24.0983 24.7133 24.7133C23.456 25.9277 21.772 26.5997 20.024 26.5845C18.276 26.5693 16.6039 25.8682 15.3679 24.6321C14.1318 23.3961 13.4307 21.724 13.4155 19.976C13.4003 18.228 14.0723 16.544 15.2867 15.2867Z" fill="#0D0D0D"/>
</svg>
