<svg width="24" height="24" viewBox="0 0 24 24" fill="none" xmlns="http://www.w3.org/2000/svg">
<path d="M20.924 5.617C20.8737 5.49577 20.8 5.38567 20.707 5.293L17.707 2.293C17.6148 2.19749 17.5044 2.12131 17.3824 2.0689C17.2604 2.01649 17.1292 1.98891 16.9964 1.98775C16.8636 1.9866 16.7319 2.0119 16.609 2.06218C16.4862 2.11246 16.3745 2.18672 16.2806 2.28061C16.1867 2.3745 16.1125 2.48615 16.0622 2.60905C16.0119 2.73195 15.9866 2.86363 15.9878 2.99641C15.9889 3.12919 16.0165 3.26041 16.0689 3.38241C16.1213 3.50441 16.1975 3.61476 16.293 3.707L17.586 5H8C6.67392 5 5.40215 5.52679 4.46447 6.46447C3.52679 7.40215 3 8.67392 3 10V12C3 12.2652 3.10536 12.5196 3.29289 12.7071C3.48043 12.8946 3.73478 13 4 13C4.26522 13 4.51957 12.8946 4.70711 12.7071C4.89464 12.5196 5 12.2652 5 12V10C5 9.20436 5.31607 8.44129 5.87868 7.87868C6.44129 7.31608 7.20435 7 8 7H17.586L16.293 8.293C16.1108 8.48161 16.01 8.73421 16.0123 8.99641C16.0146 9.2586 16.1198 9.50942 16.3052 9.69482C16.4906 9.88023 16.7414 9.9854 17.0036 9.98768C17.2658 9.98996 17.5184 9.88916 17.707 9.707L20.707 6.707C20.8 6.61427 20.8738 6.50407 20.924 6.38274C20.9743 6.26141 21.0001 6.13134 21 6M20.924 5.617C20.974 5.73747 20.9998 5.86658 21 5.997L20.924 5.617ZM3.076 17.617C2.99989 17.7997 2.97989 18.0009 3.01853 18.195C3.05718 18.3892 3.15272 18.5674 3.293 18.707L6.293 21.707C6.4816 21.8892 6.73421 21.99 6.9964 21.9877C7.2586 21.9854 7.50941 21.8802 7.69482 21.6948C7.88023 21.5094 7.9854 21.2586 7.98768 20.9964C7.98995 20.7342 7.88916 20.4816 7.707 20.293L6.414 19H16C17.3261 19 18.5979 18.4732 19.5355 17.5355C20.4732 16.5979 21 15.3261 21 14V12C21 11.7348 20.8946 11.4804 20.7071 11.2929C20.5196 11.1054 20.2652 11 20 11C19.7348 11 19.4804 11.1054 19.2929 11.2929C19.1054 11.4804 19 11.7348 19 12V14C19 14.7957 18.6839 15.5587 18.1213 16.1213C17.5587 16.6839 16.7957 17 16 17H6.414L7.707 15.707C7.80251 15.6148 7.87869 15.5044 7.9311 15.3824C7.98351 15.2604 8.0111 15.1292 8.01225 14.9964C8.01341 14.8636 7.9881 14.7319 7.93782 14.6091C7.88754 14.4862 7.81329 14.3745 7.7194 14.2806C7.6255 14.1867 7.51385 14.1125 7.39095 14.0622C7.26806 14.0119 7.13638 13.9866 7.0036 13.9878C6.87082 13.9889 6.7396 14.0165 6.6176 14.0689C6.49559 14.1213 6.38525 14.1975 6.293 14.293L3.293 17.293M3.076 17.617C3.12594 17.4967 3.19898 17.3873 3.291 17.295L3.076 17.617Z" fill="#F4C288"/>
</svg>
